<?xml version="1.0" standalone="no"?>
<!DOCTYPE svg PUBLIC "-//W3C//DTD SVG 20010904//EN"
 "http://www.w3.org/TR/2001/REC-SVG-20010904/DTD/svg10.dtd">
<svg version="1.0" xmlns="http://www.w3.org/2000/svg"
 width="97.000000pt" height="97.000000pt" viewBox="0 0 97.000000 97.000000"
 preserveAspectRatio="xMidYMid meet">
<metadata>
Created by potrace 1.14, written by Peter Selinger 2001-2017
</metadata>
<g transform="translate(0.000000,97.000000) scale(0.100000,-0.100000)"
fill="#000000" stroke="none">
<path d="M300 955 c-12 -14 -11 -26 0 -78 24 -107 20 -126 -53 -245 -92 -150
-110 -199 -111 -297 -1 -64 4 -89 22 -126 42 -86 154 -174 247 -194 l30 -6
-32 16 c-82 43 -114 217 -60 326 28 57 66 102 121 144 39 29 56 32 57 8 0 -10
6 4 14 32 11 40 11 53 0 68 -9 12 -10 29 -5 54 12 51 27 62 45 36 31 -44 43
-51 90 -48 25 2 47 5 49 6 37 56 38 60 20 87 -32 49 -123 128 -183 161 -118
62 -226 86 -251 56z"/>
<path d="M635 530 c-8 -13 13 -40 31 -40 20 0 27 19 14 35 -14 17 -36 19 -45
5z"/>
<path d="M765 520 c-7 -12 2 -30 16 -30 5 0 9 9 9 20 0 21 -15 27 -25 10z"/>
<path d="M730 442 c-34 -3 -36 -5 -48 -57 -12 -51 -11 -57 8 -83 25 -33 18
-62 -15 -62 -26 0 -37 -19 -40 -67 -1 -17 -14 -48 -30 -69 -25 -32 -26 -38
-11 -46 9 -5 16 -17 16 -28 0 -17 10 -19 96 -22 106 -3 121 3 105 45 -12 30
-39 47 -77 47 -23 0 -25 3 -19 23 4 12 9 34 12 49 3 17 12 28 26 30 28 4 41
53 21 83 -14 21 -13 24 10 41 17 13 26 33 30 65 7 45 6 47 -21 50 -15 2 -44 3
-63 1z m-15 -33 c-5 -23 -13 -35 -19 -28 -5 5 12 49 18 49 3 0 3 -10 1 -21z"/>
<path d="M482 318 c2 -17 12 -24 43 -30 62 -13 94 -28 101 -50 5 -16 8 -18 15
-7 10 17 -10 40 -69 79 -56 37 -95 40 -90 8z"/>
</g>
</svg>
